<?xml version="1.0" encoding="UTF-8"?>
<!DOCTYPE svg PUBLIC "-//W3C//DTD SVG 1.1//EN" "http://www.w3.org/Graphics/SVG/1.1/DTD/svg11.dtd">
<!-- Creator: CorelDRAW 2020 (64 Bit) -->
<svg xmlns="http://www.w3.org/2000/svg" xml:space="preserve" width="169.333mm" height="30mm" version="1.1" style="shape-rendering:geometricPrecision; text-rendering:geometricPrecision; image-rendering:optimizeQuality; fill-rule:evenodd; clip-rule:evenodd"
viewBox="0 0 16933.32 3000"
 xmlns:xlink="http://www.w3.org/1999/xlink"
 xmlns:xodm="http://www.corel.com/coreldraw/odm/2003"
 zoomAndPan="magnify">
 <defs>
  <style type="text/css">
   <![CDATA[
    .str1 {stroke:#FEFEFE;stroke-width:20;stroke-miterlimit:22.9256}
    .str0 {stroke:#008CFF;stroke-width:20;stroke-miterlimit:22.9256}
    .fil2 {fill:#FEFEFE;fill-rule:nonzero}
    .fil1 {fill:#008CFF;fill-rule:nonzero}
    .fil0 {fill:white;fill-rule:nonzero}
    .fil3 {fill:url(#id0);fill-rule:nonzero}
    .fil4 {fill:url(#id1);fill-rule:nonzero}
   ]]>
  </style>
  <radialGradient id="id0" gradientUnits="userSpaceOnUse" gradientTransform="matrix(0.619911 -0 -0 1 1202 0)" cx="3163.08" cy="1361.02" r="995.77" fx="3163.08" fy="1361.02">
   <stop offset="0" style="stop-opacity:1; stop-color:#5A46C8"/>
   <stop offset="0.501961" style="stop-opacity:1; stop-color:#008CFF"/>
   <stop offset="1" style="stop-opacity:1; stop-color:#5A46C8"/>
  </radialGradient>
  <radialGradient id="id1" gradientUnits="userSpaceOnUse" gradientTransform="matrix(0.619969 -0 -0 0.999999 1468 0)" xlink:href="#id0" cx="3863.96" cy="1653.24" r="995.7" fx="3863.96" fy="1653.24">
  </radialGradient>
 </defs>
 <g id="Camada_x0020_1">
  <metadata id="CorelCorpID_0Corel-Layer"/>
  <g id="_2003959794672">
   <g>
    <g>
    </g>
   </g>
  </g>
  <g id="_2003977282768">
   <g>
    <g>
    </g>
   </g>
  </g>
  <g id="_2003977278544">
   <g>
    <g>
     <g>
      <path class="fil0" d="M4766.9 644.12l873.16 0 0 242.23 -548.94 0 0 139.58 470.06 0 0 232.21 -470.06 0 0 153.98 559.58 0 0 242.22 -883.8 0 0 -1010.22zm0 0z"/>
     </g>
    </g>
   </g>
   <g>
    <g>
     <g>
      <path class="fil0" d="M6408.22 902.62l0 751.72 -324.85 0 0 -751.72 -331.74 0 0 -258.5 986.45 0 0 258.5 -329.86 0zm0 0z"/>
     </g>
    </g>
   </g>
   <g>
    <g>
     <g>
      <path class="fil0" d="M7388.57 626.59c174.31,0 308.88,44.75 403.71,133.94 95.14,88.89 142.71,218.45 142.71,388.7 0,170.25 -47.57,300.13 -142.71,389.31 -94.83,88.89 -229.4,133.32 -403.71,133.32 -174.47,0 -308.9,-44.12 -403.09,-132.69 -94.36,-88.4 -141.46,-218.44 -141.46,-389.94 0,-171.51 47.1,-301.38 141.46,-389.95 94.19,-88.41 228.62,-132.69 403.09,-132.69zm0 242.23c-69.79,0 -122.68,21.13 -158.98,63.22 -35.99,42.24 -53.83,98.89 -53.83,170.25l0 93.88c0,71.36 17.84,128.16 53.83,170.25 36.3,42.25 89.19,63.22 158.98,63.22 69.16,0 122.2,-20.97 158.98,-63.22 36.61,-42.09 55.09,-98.89 55.09,-170.25l0 -93.88c0,-71.36 -18.48,-128.01 -55.09,-170.25 -36.78,-42.09 -89.82,-63.22 -158.98,-63.22zm0 0z"/>
     </g>
    </g>
   </g>
   <g>
    <g>
     <g>
      <path class="fil0" d="M8867.98 1654.34l-130.2 -615.28 -6.26 0 -130.18 615.28 -357.4 0 -235.97 -1010.22 337.36 0 116.43 572.71 5.63 0 114.54 -572.71 319.84 0 122.06 572.71 6.25 0 108.29 -572.71 322.97 0 -235.97 1010.22 -357.39 0zm0 0z"/>
     </g>
    </g>
   </g>
   <g>
    <g>
     <g>
      <path class="fil0" d="M10079.28 626.59c174.31,0 308.88,44.75 403.71,133.94 95.14,88.89 142.71,218.45 142.71,388.7 0,170.25 -47.57,300.13 -142.71,389.31 -94.83,88.89 -229.4,133.32 -403.71,133.32 -174.47,0 -308.9,-44.12 -403.1,-132.69 -94.35,-88.4 -141.45,-218.44 -141.45,-389.94 0,-171.51 47.1,-301.38 141.45,-389.95 94.2,-88.41 228.63,-132.69 403.1,-132.69zm0 242.23c-69.79,0 -122.68,21.13 -158.99,63.22 -35.99,42.24 -53.83,98.89 -53.83,170.25l0 93.88c0,71.36 17.84,128.16 53.83,170.25 36.31,42.25 89.2,63.22 158.99,63.22 69.16,0 122.2,-20.97 158.98,-63.22 36.61,-42.09 55.07,-98.89 55.07,-170.25l0 -93.88c0,-71.36 -18.46,-128.01 -55.07,-170.25 -36.78,-42.09 -89.82,-63.22 -158.98,-63.22zm0 0z"/>
     </g>
    </g>
   </g>
   <g>
    <g>
     <g>
      <path class="fil0" d="M11758.97 953.95c0,61.8 -16.74,117.67 -50.07,167.73 -33.48,49.77 -81.83,86.22 -145.22,109.55l224.09 423.11 -363.67 0 -179.63 -368.66 -120.18 0 0 368.66 -324.22 0 0 -1010.22 617.78 0c72.6,0 134.57,14.08 185.89,41.93 51.33,28.02 89.82,65.73 115.8,113.3 26.29,47.24 39.43,98.73 39.43,154.6zm-330.48 13.13c0,-26.28 -9.07,-48.19 -26.91,-65.71 -17.52,-17.84 -39.12,-26.92 -64.48,-26.92l-212.81 0 0 186.53 212.81 0c25.36,0 46.96,-8.93 64.48,-26.92 17.84,-18.31 26.91,-40.69 26.91,-66.98zm0 0z"/>
     </g>
    </g>
   </g>
   <g>
    <g>
     <g>
      <path class="fil0" d="M12626.24 644.12l402.46 0 -363.02 415.6 369.9 594.62 -383.05 0 -209.68 -369.91 -176.51 143.96 0 225.95 -324.22 0 0 -1010.22 324.22 0 0 431.88 359.9 -431.88zm0 0z"/>
     </g>
    </g>
   </g>
   <g>
    <g>
     <g>
      <path class="fil0" d="M13308.86 1069.73l-100.14 0 -68.86 -209.67 0 -215.94 239.11 0 0 215.94 -70.11 209.67zm0 0z"/>
     </g>
    </g>
   </g>
   <g>
    <g>
     <g>
      <path class="fil0" d="M13997.36 626.59c128.93,0 234.87,26.28 317.95,78.87 83.41,52.26 126.12,129.56 128.32,232.21l0 17.52 -304.2 0 0 -5.63c0,-29.1 -10.94,-53.51 -32.54,-73.23 -21.28,-19.56 -54.14,-29.42 -98.27,-29.42 -43.04,0 -76.05,6.58 -98.89,19.41 -23.01,12.51 -34.43,28.01 -34.43,46.32 0,26.75 15.65,46.62 46.94,59.45 31.3,12.53 81.68,25.52 151.47,38.81 80.9,16.74 147.41,34.27 199.67,52.58 52.57,18 98.42,47.56 137.7,88.87 39.12,41.01 59.15,96.72 60.09,167.13 0,119.39 -40.52,208.12 -121.43,266.01 -80.59,57.59 -188.24,86.37 -322.97,86.37 -157.73,0 -280.41,-26.28 -368.04,-78.86 -87.62,-52.89 -131.44,-146.61 -131.44,-281.04l306.7 0c0,51.02 13.14,84.97 39.44,102.03 26.59,17.21 67.9,25.66 123.93,25.66 40.83,0 74.63,-4.38 101.39,-13.14 27.07,-8.76 40.68,-26.6 40.68,-53.83 0,-24.56 -15.02,-42.88 -45.07,-55.09 -29.72,-12.51 -78.23,-25.66 -145.83,-39.42 -82.3,-17.53 -150.22,-35.68 -204.04,-54.46 -53.84,-19.09 -100.78,-50.7 -140.84,-94.51 -40.06,-44.12 -60.08,-104.06 -60.08,-179.64 0,-110.47 42.72,-191.84 128.3,-244.1 85.45,-52.59 194.04,-78.87 325.49,-78.87zm0 0z"/>
     </g>
    </g>
   </g>
  </g>
  <g id="_2003977280656">
   <g>
    <g>
     <path class="fil1 str0" d="M4965.33 2387.67c-31.17,0 -58.95,-3.91 -82.83,-11.71 -24.12,-7.78 -44.35,-17.77 -60.42,-30.19 -16.34,-12.19 -28.75,-25.84 -37.04,-40.94l48.73 -60.43 7.8 0c12.9,20.23 29.72,36.55 50.67,48.73 20.72,11.7 45.09,17.54 73.09,17.54 23.89,0 41.92,-4.86 53.61,-14.61 12.18,-10.23 18.51,-24.38 18.51,-41.92 0,-10.22 -1.94,-19.01 -5.83,-26.31 -3.91,-7.07 -10.49,-13.15 -19.5,-18.51 -9.25,-5.13 -21.43,-9.76 -37.03,-13.65l-57.5 -12.68c-40.45,-9.74 -70.67,-24.84 -90.65,-45.79 -19.48,-21.45 -29.22,-49.22 -29.22,-83.83 0,-25.33 6.08,-47.26 18.51,-66.26 12.91,-19.49 31.44,-34.36 55.55,-44.84 24.61,-10.97 53.84,-16.57 87.72,-16.57 34.35,0 63.83,4.63 88.69,13.65 24.61,9.26 45.31,23.14 62.38,41.9l-43.87 60.44 -7.8 0c-12.43,-13.65 -26.8,-23.64 -42.88,-30.22 -16.31,-6.33 -35.09,-9.74 -56.52,-9.74 -24.12,0 -42.65,4.38 -55.56,12.66 -12.43,8.54 -18.51,20.22 -18.51,35.09 0,14.38 4.14,25.84 12.66,34.11 9.02,8.52 24.61,15.1 46.79,19.49l58.47 12.67c43.37,9.27 75.05,24.86 94.54,46.79 19.98,22.17 30.21,50.67 30.21,85.77 0,28 -6.33,52.37 -18.53,73.09 -11.68,20.95 -29.96,37.02 -54.56,48.73 -24.13,11.69 -54.1,17.54 -89.68,17.54zm0 0z"/>
    </g>
   </g>
  </g>
  <g id="_2003977293808">
   <g>
    <g>
     <path class="fil1 str0" d="M5299.2 2380.84l-88.68 0 0 -448.32 88.68 0 0 448.32zm0 0z"/>
    </g>
   </g>
  </g>
  <g id="_2003977292560">
   <g>
    <g>
     <path class="fil1 str0" d="M5497.07 2380.84l-80.91 0 0 -448.32 115.99 0 113.05 329.42 6.83 0 113.05 -329.42 113.05 0 0 448.32 -83.8 0 0 -296.28 -7.8 -0.97 -103.31 297.25 -74.07 0 -104.28 -297.25 -7.8 0.97 0 296.28zm0 0z"/>
    </g>
   </g>
  </g>
  <g id="_2003977290544">
   <g>
    <g>
     <path class="fil1 str0" d="M6168.86 1932.52c31.67,0 58.95,5.86 81.87,17.54 22.65,11.71 39.96,28.28 51.64,49.72 11.71,20.95 17.54,45.32 17.54,73.1 0,28 -5.83,52.61 -17.54,74.06 -11.68,20.95 -28.99,37.04 -51.64,48.73 -22.92,11.69 -50.2,17.54 -81.87,17.54l-84.8 0 0 167.63 -88.68 0 0 -448.32 173.48 0zm-11.7 210.51c49.22,0 74.06,-23.37 74.06,-70.15 0,-46.79 -24.84,-70.18 -74.06,-70.18l-73.1 0 0 140.33 73.1 0zm0 0z"/>
    </g>
   </g>
  </g>
  <g id="_2003977292416">
   <g>
    <g>
     <path class="fil1 str0" d="M6494.14 1932.52l0 374.26 201.74 0 0 74.06 -290.43 0 0 -448.32 88.69 0zm0 0z"/>
    </g>
   </g>
  </g>
  <g id="_2003977291552">
   <g>
    <g>
     <path class="fil1 str0" d="M6857.56 2380.84l-88.69 0 0 -448.32 88.69 0 0 448.32zm0 0z"/>
    </g>
   </g>
  </g>
  <g id="_2003977291024">
   <g>
    <g>
     <path class="fil1 str0" d="M7259.11 1932.52l0 74.07 -195.91 0 0 118.9 177.4 0 0 73.1 -177.4 0 0 182.25 -88.68 0 0 -448.32 284.59 0zm0 0z"/>
    </g>
   </g>
  </g>
  <g id="_2003977292704">
   <g>
    <g>
     <path class="fil1 str0" d="M7524.45 2380.84l-88.69 0 0 -176.4 -154.96 -271.92 95.52 0 102.34 176.41 7.79 0 100.38 -176.41 92.59 0 -154.97 271.92 0 176.4zm0 0z"/>
    </g>
   </g>
  </g>
  <g id="_2003977293568">
   <g>
    <g>
     <path class="fil1 str0" d="M7829.04 2380.84l-88.69 0 0 -448.32 88.69 0 0 448.32zm0 0z"/>
    </g>
   </g>
  </g>
  <g id="_2003977289056">
   <g>
    <g>
     <path class="fil1 str0" d="M8031.77 2380.84l-85.77 0 0 -448.32 101.37 0 180.29 288.49 7.8 -0.97 0 -287.52 85.77 0 0 448.32 -91.63 0 -190.03 -308.94 -7.8 0.98 0 307.96zm0 0z"/>
    </g>
   </g>
  </g>
  <g id="_2003977288000">
   <g>
    <g>
     <path class="fil1 str0" d="M8597.86 2387.67c-37.76,0 -70.17,-8.29 -97.45,-25.34 -27.29,-17.54 -48.48,-43.37 -63.35,-77.97 -15.1,-34.36 -22.42,-77 -22.42,-127.68 0,-51.16 8.77,-94.04 26.32,-128.64 18.02,-34.36 42.88,-59.94 74.07,-76.99 31.67,-16.81 68.71,-25.35 111.11,-25.35 42.87,0 79.17,8.29 109.14,24.36 30.47,15.6 51.9,39.49 64.32,71.15l-65.29 38.99 -6.83 0c-9.74,-19.98 -23.14,-34.6 -39.96,-43.85 -16.31,-9.76 -36.79,-14.62 -61.38,-14.62 -38.99,0 -68.96,12.43 -89.68,37.02 -20.21,24.86 -30.2,64.1 -30.2,117.93 0,54.09 9.25,93.32 28.25,117.94 19.51,24.84 48.01,37.02 85.77,37.02 31.67,0 55.56,-7.05 71.15,-21.43 15.6,-14.87 23.39,-36.55 23.39,-65.29l0 -19.51 -106.24 0 0 -72.12 193.96 0 0 247.55 -84.8 0 0 -60.41 -6.82 -0.99c-9.25,21.45 -23.15,38.51 -41.91,50.69 -18.28,11.69 -41.9,17.54 -71.15,17.54zm0 0z"/>
    </g>
   </g>
  </g>
  <g id="_2003977290304">
   <g>
    <g>
     <path class="fil2 str1" d="M9355.53 1932.52l0 74.07 -129.62 0 0 374.25 -87.71 0 0 -374.25 -129.64 0 0 -74.07 346.97 0zm0 0z"/>
    </g>
   </g>
  </g>
  <g id="_2003977289728">
   <g>
    <g>
     <path class="fil2 str1" d="M9515.09 2183.98l0 122.8 214.4 0 0 74.06 -303.09 0 0 -448.32 298.22 0 0 74.07 -209.53 0 0 104.28 183.21 0 0 73.11 -183.21 0zm0 0z"/>
    </g>
   </g>
  </g>
  <g id="_2003977288480">
   <g>
    <g>
     <path class="fil2 str1" d="M9999.33 2387.67c-41.65,0 -78.45,-8.29 -110.11,-25.34 -31.19,-17.54 -56.05,-43.37 -74.09,-77.97 -17.54,-34.36 -26.31,-77 -26.31,-127.68 0,-50.67 8.77,-93.07 26.31,-127.67 18.04,-34.35 42.9,-59.94 74.09,-76.98 31.66,-17.56 68.46,-26.33 110.11,-26.33 42.9,0 79.2,8.54 109.17,25.35 30.46,17.05 52.14,42.63 65.29,76.99l-65.29 39.96 -6.83 -0.98c-9.74,-22.66 -23.14,-39.23 -39.96,-49.7 -16.32,-10.23 -37.02,-15.59 -62.38,-15.59 -37.76,0 -66.99,12.43 -87.71,37.02 -20.95,24.86 -31.17,64.1 -31.17,117.93 0,53.37 10.22,92.35 31.17,116.96 20.72,24.85 49.95,37.03 87.71,37.03 57.75,0 93.57,-28.26 107.22,-84.78l6.83 0 66.26 34.1c-12.43,42.4 -33.62,74.07 -63.35,95.52 -29.97,21.44 -68.95,32.16 -116.96,32.16zm0 0z"/>
    </g>
   </g>
  </g>
  <g id="_2003977287328">
   <g>
    <g>
     <path class="fil2 str1" d="M10541.84 2101.13l0 -168.61 88.69 0 0 448.32 -88.69 0 0 -204.65 -200.79 0 0 204.65 -88.68 0 0 -448.32 88.68 0 0 168.61 200.79 0zm0 0z"/>
    </g>
   </g>
  </g>
  <g id="_2003977287232">
   <g>
    <g>
     <path class="fil2 str1" d="M11036.08 2387.67c-31.19,0 -58.97,-3.91 -82.86,-11.71 -24.11,-7.78 -44.34,-17.77 -60.41,-30.19 -16.34,-12.19 -28.75,-25.84 -37.04,-40.94l48.73 -60.43 7.79 0c12.93,20.23 29.72,36.55 50.68,48.73 20.72,11.7 45.08,17.54 73.11,17.54 23.87,0 41.9,-4.86 53.59,-14.61 12.18,-10.23 18.53,-24.38 18.53,-41.92 0,-10.22 -1.96,-19.01 -5.85,-26.31 -3.91,-7.07 -10.49,-13.15 -19.51,-18.51 -9.24,-5.13 -21.43,-9.76 -37.02,-13.65l-57.5 -12.68c-40.45,-9.74 -70.67,-24.84 -90.65,-45.79 -19.48,-21.45 -29.23,-49.22 -29.23,-83.83 0,-25.33 6.09,-47.26 18.52,-66.26 12.9,-19.49 31.43,-34.36 55.55,-44.84 24.61,-10.97 53.84,-16.57 87.72,-16.57 34.35,0 63.82,4.63 88.68,13.65 24.62,9.26 45.32,23.14 62.38,41.9l-43.86 60.44 -7.8 0c-12.43,-13.65 -26.81,-23.64 -42.88,-30.22 -16.32,-6.33 -35.08,-9.74 -56.52,-9.74 -24.12,0 -42.65,4.38 -55.56,12.66 -12.43,8.54 -18.51,20.22 -18.51,35.09 0,14.38 4.14,25.84 12.66,34.11 9.02,8.52 24.61,15.1 46.78,19.49l58.47 12.67c43.38,9.27 75.06,24.86 94.54,46.79 19.98,22.17 30.22,50.67 30.22,85.77 0,28 -6.33,52.37 -18.51,73.09 -11.71,20.95 -29.97,37.02 -54.58,48.73 -24.14,11.69 -54.09,17.54 -89.66,17.54zm0 0z"/>
    </g>
   </g>
  </g>
  <g id="_2003977285216">
   <g>
    <g>
     <path class="fil2 str1" d="M11467.41 2387.67c-40.95,0 -77.5,-8.29 -109.17,-25.34 -31.19,-16.81 -56.04,-42.4 -74.06,-77 -17.56,-34.35 -26.33,-77.23 -26.33,-128.65 0,-51.16 8.77,-94.04 26.33,-128.64 18.02,-34.36 42.87,-59.94 74.06,-76.99 31.67,-16.81 68.22,-25.35 109.17,-25.35 40.93,0 76.98,8.54 108.17,25.35 31.67,16.32 56.53,41.91 74.06,76.99 17.54,34.6 26.33,77.48 26.33,128.64 0,51.42 -8.79,94.3 -26.33,128.65 -17.53,34.6 -42.39,60.19 -74.06,77 -31.19,17.05 -67.24,25.34 -108.17,25.34zm0 -77c38.24,0 67.24,-12.18 86.72,-37.03 19.98,-24.61 30.22,-63.59 30.22,-116.96 0,-53.83 -10.24,-92.82 -30.22,-116.94 -19.48,-24.61 -48.48,-37.04 -86.72,-37.04 -38.51,0 -67.74,12.43 -87.72,37.04 -20.23,24.12 -30.22,63.11 -30.22,116.94 0,53.37 9.99,92.35 30.22,116.96 19.98,24.85 49.21,37.03 87.72,37.03zm0 0z"/>
    </g>
   </g>
  </g>
  <g id="_2003977286176">
   <g>
    <g>
     <path class="fil2 str1" d="M11858.9 1932.52l0 374.26 201.74 0 0 74.06 -290.43 0 0 -448.32 88.69 0zm0 0z"/>
    </g>
   </g>
  </g>
  <g id="_2003977286080">
   <g>
    <g>
     <path class="fil2 str1" d="M12312.97 2387.67c-61.91,0 -107.7,-14.62 -137.44,-43.87 -29.97,-29.72 -44.82,-73.57 -44.82,-131.56l0 -279.72 86.74 0 0 279.72c0,32.65 7.8,57.25 23.4,74.06 16.07,16.34 40.18,24.37 72.12,24.37 63.58,0 95.49,-32.64 95.49,-98.43l0 -279.72 86.74 0 0 279.72c0,57.99 -15.1,101.84 -44.82,131.56 -29.97,29.25 -75.78,43.87 -137.41,43.87zm0 0z"/>
    </g>
   </g>
  </g>
  <g id="_2003977284496">
   <g>
    <g>
     <path class="fil2 str1" d="M12910.55 1932.52l0 74.07 -129.62 0 0 374.25 -87.72 0 0 -374.25 -129.62 0 0 -74.07 346.96 0zm0 0z"/>
    </g>
   </g>
  </g>
  <g id="_2003977284736">
   <g>
    <g>
     <path class="fil2 str1" d="M13070.1 2380.84l-88.68 0 0 -448.32 88.68 0 0 448.32zm0 0z"/>
    </g>
   </g>
  </g>
  <g id="_2003977284592">
   <g>
    <g>
     <path class="fil2 str1" d="M13373.21 2387.67c-40.93,0 -77.48,-8.29 -109.16,-25.34 -31.18,-16.81 -56.03,-42.4 -74.07,-77 -17.54,-34.35 -26.31,-77.23 -26.31,-128.65 0,-51.16 8.77,-94.04 26.31,-128.64 18.04,-34.36 42.89,-59.94 74.07,-76.99 31.68,-16.81 68.23,-25.35 109.16,-25.35 40.93,0 77,8.54 108.19,25.35 31.67,16.32 56.53,41.91 74.06,76.99 17.54,34.6 26.31,77.48 26.31,128.64 0,51.42 -8.77,94.3 -26.31,128.65 -17.53,34.6 -42.39,60.19 -74.06,77 -31.19,17.05 -67.26,25.34 -108.19,25.34zm0 -77c38.26,0 67.24,-12.18 86.74,-37.03 19.98,-24.61 30.22,-63.59 30.22,-116.96 0,-53.83 -10.24,-92.82 -30.22,-116.94 -19.5,-24.61 -48.48,-37.04 -86.74,-37.04 -38.49,0 -67.74,12.43 -87.72,37.04 -20.22,24.12 -30.21,63.11 -30.21,116.94 0,53.37 9.99,92.35 30.21,116.96 19.98,24.85 49.23,37.03 87.72,37.03zm0 0z"/>
    </g>
   </g>
  </g>
  <g id="_2003987894992">
   <g>
    <g>
     <path class="fil2 str1" d="M13761.78 2380.84l-85.77 0 0 -448.32 101.37 0 180.31 288.49 7.8 -0.97 0 -287.52 85.75 0 0 448.32 -91.6 0 -190.06 -308.94 -7.8 0.98 0 307.96zm0 0z"/>
    </g>
   </g>
  </g>
  <g id="_2003987889136">
   <g>
    <g>
     <path class="fil2 str1" d="M14308.39 2387.67c-31.19,0 -58.96,-3.91 -82.83,-11.71 -24.14,-7.78 -44.35,-17.77 -60.44,-30.19 -16.32,-12.19 -28.74,-25.84 -37.02,-40.94l48.73 -60.43 7.8 0c12.9,20.23 29.72,36.55 50.67,48.73 20.7,11.7 45.07,17.54 73.09,17.54 23.89,0 41.91,-4.86 53.61,-14.61 12.18,-10.23 18.51,-24.38 18.51,-41.92 0,-10.22 -1.94,-19.01 -5.85,-26.31 -3.89,-7.07 -10.46,-13.15 -19.48,-18.51 -9.27,-5.13 -21.45,-9.76 -37.04,-13.65l-57.5 -12.68c-40.44,-9.74 -70.66,-24.84 -90.64,-45.79 -19.5,-21.45 -29.24,-49.22 -29.24,-83.83 0,-25.33 6.1,-47.26 18.51,-66.26 12.93,-19.49 31.44,-34.36 55.56,-44.84 24.61,-10.97 53.85,-16.57 87.71,-16.57 34.36,0 63.85,4.63 88.69,13.65 24.61,9.26 45.33,23.14 62.38,41.9l-43.85 60.44 -7.8 0c-12.43,-13.65 -26.8,-23.64 -42.89,-30.22 -16.32,-6.33 -35.08,-9.74 -56.53,-9.74 -24.12,0 -42.63,4.38 -55.55,12.66 -12.41,8.54 -18.51,20.22 -18.51,35.09 0,14.38 4.13,25.84 12.67,34.11 9.02,8.52 24.61,15.1 46.79,19.49l58.47 12.67c43.37,9.27 75.04,24.86 94.54,46.79 19.98,22.17 30.2,50.67 30.2,85.77 0,28 -6.33,52.37 -18.51,73.09 -11.69,20.95 -29.97,37.02 -54.59,48.73 -24.11,11.69 -54.08,17.54 -89.66,17.54zm0 0z"/>
    </g>
   </g>
  </g>
  <g id="_2003987889424">
   <polygon class="fil3" points="2462.14,230.31 2462.14,2491.73 2832.52,2491.73 2832.52,934.3 3864.03,1531.73 3864.03,1042.43 "/>
   <polygon class="fil4" points="4194.51,2079.88 3163.01,1482.44 3163.01,1971.92 4564.9,2783.88 4564.9,522.61 4194.51,522.61 "/>
  </g>
 </g>
</svg>
