<?xml version="1.0" encoding="UTF-8"?>
<!DOCTYPE svg PUBLIC "-//W3C//DTD SVG 1.1//EN" "http://www.w3.org/Graphics/SVG/1.1/DTD/svg11.dtd">
<!-- Creator: CorelDRAW 2020 (64 Bit) -->
<svg xmlns="http://www.w3.org/2000/svg" xml:space="preserve" width="354px" height="472px" version="1.1" style="shape-rendering:geometricPrecision; text-rendering:geometricPrecision; image-rendering:optimizeQuality; fill-rule:evenodd; clip-rule:evenodd"
viewBox="0 0 354 472"
 xmlns:xlink="http://www.w3.org/1999/xlink"
 xmlns:xodm="http://www.corel.com/coreldraw/odm/2003">
 <defs>
  <style type="text/css">
   <![CDATA[
    .fil0 {fill:#084A89}
   ]]>
  </style>
 </defs>
 <g id="Camada_x0020_1">
  <metadata id="CorelCorpID_0Corel-Layer"/>
  <g id="_2567415314112">
   <path class="fil0" d="M-349.12 286.54l0 178.27 49.32 0 0 -185.19c0,-28.65 11.49,-57.05 30.94,-76.38 40.16,-39.93 101.61,-43.18 146.74,-5.24 3,2.52 4.61,3.61 7.31,6.53 1.6,1.74 1.62,2.13 3.07,3.86 19,22.59 26.56,45.1 26.56,77.28l0 179.14 49.33 0 0 -191.25c0,-32.77 20,-65.11 46.37,-83.43 3.09,-2.15 5.01,-3.1 8.1,-4.89 3.17,-1.82 4.67,-2.81 8.57,-4.4 58.55,-23.92 116.28,1.03 140.62,51.74 5.21,10.86 10.09,27.06 10.09,42.71l0 189.52 49.32 0 0 -187.79c0,-32.97 -10.65,-61.18 -28.21,-87.75 -5.38,-8.15 -11.15,-14.36 -17.87,-21.07 -61.06,-61.07 -159.6,-60.69 -218.51,-1.73 -5.99,5.99 -20.88,21.48 -22.71,28.34 -2.5,-1.67 -3.53,-4.13 -5.43,-6.69 -8.48,-11.39 -20.2,-24.03 -31.28,-32.76 -5.15,-4.06 -9.9,-7.03 -15.38,-10.58 -8.89,-5.76 -24.09,-12.65 -35.31,-15.74 -37.63,-10.37 -75.54,-9.21 -110.21,7.49 -59.52,28.65 -91.43,82.5 -91.43,150.01z"/>
   <path class="fil0" d="M-670.18 416.35l-82.21 0 0 -243.18 83.94 0c39.71,0 80.92,29.62 100.36,63.2 9.22,15.94 17.22,39.83 16.18,58.63 -1.85,33.78 -13.79,60.57 -36.28,83.05 -5.47,5.48 -9.24,9.25 -15.47,13.95 -17.15,12.92 -42.71,24.35 -66.52,24.35zm-129.81 -355.68l0 -11.15c0.33,-12.63 3.01,-23.25 20.49,-30.66 7.53,-3.19 16.68,-3.19 27.11,-3.19l0 108.18c34.12,0 78.44,-2.32 107.94,2.83 31.65,5.52 55.09,18.1 76.4,34.36 44.14,33.69 72.08,97.89 62.69,156.18 -9.3,57.77 -41.93,103.65 -92.57,128.97 -32.72,16.36 -56.01,17.75 -93.02,17.75 -37.03,0 -71.67,0.87 -109.04,0.87l0 -404.14z"/>
   <path class="fil0" d="M448.76 169.71c16.72,0 32.67,3.06 45.26,8.4 10.19,4.33 24.5,12.12 32.41,19.51 8.62,8.06 11.37,10.02 18.89,20.06 9.53,12.72 17.24,27.04 21.13,43.76l-232.78 0c0.93,-11.27 13.08,-33.27 20.64,-43.39 9.24,-12.37 20.71,-23.05 33.91,-30.99 5.65,-3.4 10.78,-6.14 17.26,-8.71 12,-4.75 26.59,-8.64 43.28,-8.64zm-166.15 118.56c0,34.18 3.93,50.37 16.19,79 2.12,4.95 4.7,9.15 7.22,13.55 5.35,9.35 10.43,16.08 17.13,24.41 4.57,5.67 12.1,12.18 15.93,16.09 6.98,7.13 21.3,17.11 30.07,21.85l14.42 7.22c18.38,8.61 42.89,14.42 69.52,14.42l117.69 0c2,0 2.6,-0.6 2.6,-2.6l0 -43.27c0,-4.27 -10.56,-2.59 -19.04,-2.59l-109.92 0.01c-31.55,0.18 -69.03,-19.48 -87.77,-44.63 -10.45,-14.02 -17.32,-26.12 -22.44,-43.33 -0.92,-3.12 -1.62,-6.11 -2.22,-9.03 -0.58,-2.79 -0.78,-7.36 -1.79,-9.47l285.58 0c2.42,-5.04 1.73,-13.59 1.73,-19.9 0,-33.51 -12.15,-68.01 -28.89,-93.13 -5.7,-8.54 -8.38,-10.98 -13.64,-17.51 -1.99,-2.48 -2.49,-3.22 -4.84,-5.54 -14.55,-14.37 -27.92,-25.29 -46.66,-34.69 -55.05,-27.58 -122.8,-21.58 -171.52,15.12 -8.27,6.23 -14.25,11.87 -21.54,19.14 -23.63,23.55 -47.81,67.98 -47.81,114.88z"/>
   <path class="fil0" d="M671.17 213.85l0 248.36c0,2 0.6,2.6 2.59,2.6l45 0 0 -237.12c0,-28.06 4.6,-47.74 26.04,-54.44 9.77,-3.05 53.34,-2.04 69.19,-1.78 3.85,0.07 7.75,1.02 7.75,-2.62l0 -45.87c-29.68,0 -74.45,-2.71 -99.85,5.73 -5.83,1.94 -10.71,4.12 -15.42,7.07 -7.98,4.99 -11.94,8.89 -17.63,16.12 -5.13,6.51 -8.84,14.29 -11.52,22.24 -3.65,10.83 -6.15,25.39 -6.15,39.71z"/>
   <path class="fil0" d="M-454.7 157.6l0 307.21 49.33 0 0 -342.69c-13.46,0 -28.32,-0.46 -38.32,9.27 -7.63,7.43 -11.01,13.81 -11.01,26.21z"/>
   <path class="fil0" d="M920.4 322.88c-17.08,-9.03 -25.96,-15.57 -50.19,-15.57 -22.27,0 -45.37,13.95 -54.83,32.58 -1.66,3.28 -2.56,5.91 -4.02,8.96 2.44,-0.65 7.75,-5.27 11.41,-7.63 25.11,-16.18 65.52,-20 92.07,-4.13 2.64,1.57 7.47,5.05 9.88,5.7 0.84,-10.02 14.17,-28.45 23.49,-35.37 28.11,-20.85 64.6,-23.83 90.54,0.09 7.71,7.11 19.01,24.69 20.11,37.87 9.03,-2.1 21.77,-13.17 52.93,-7.93 28.18,4.74 36.47,20.54 40.53,23.51 -0.18,-8.24 -7.61,-17.47 -12.23,-23.25 -17.88,-22.37 -52.55,-25.57 -77.77,-12.23 -0.17,-7.54 -4.94,-16.98 -8.06,-22.23 -3.79,-6.39 -8.77,-12.37 -14.3,-16.85 -34.03,-27.51 -82.74,-19.16 -108.94,15.95 -2.18,2.91 -4.24,6.24 -6.02,9.56 -2,3.72 -2.89,7.41 -4.6,10.97z"/>
   <path class="fil0" d="M879.72 133.36l-0.03 48.5c0.01,5.97 0.92,10.26 0.9,17.27 -0.05,20.96 7.73,36 24.59,46.38 36.64,22.57 80.99,-5.05 80.99,-44.64l0 -80.49 -15.58 0 0 83.08c0,4.95 -1.91,10.04 -3.82,13.49 -0.94,1.71 -2.22,3.85 -3.36,5.3 -24.16,30.92 -68.11,12.54 -68.11,-23.98l0 -77.89c-7.89,0 -15.58,-0.42 -15.58,12.98z"/>
   <path class="fil0" d="M1047.61 179.23l-33.75 0 0 -43.27 36.34 0c9.31,0 19.04,9.74 19.04,19.04 0,7.59 0.3,11.99 -7.1,18.86 -3.35,3.1 -8.34,5.37 -14.53,5.37zm-49.33 -50.19l0 124.61c10.26,0 15.58,1.47 15.58,-2.59l0 -56.25 32.02 0c21.69,0 38.08,-15.75 38.08,-39.81 0,-17.51 -17.11,-34.62 -34.62,-34.62l-42.4 0c-4.36,0 -8.66,4.31 -8.66,8.66z"/>
   <path class="fil0" d="M440.97 27.79c10.81,0 13.59,5.07 17.31,12.11l-32.02 0c1.38,-5.9 7.67,-12.11 14.71,-12.11zm-0.86 41.54l19.9 0 0 -6.93c-16.02,0 -30.56,2.68 -34.61,-14.71l40.67 0c0,-11.44 -4.18,-21.01 -14.41,-25.4 -9.96,-4.27 -20.51,-0.76 -26.52,5.24 -6.08,6.09 -8.96,16 -5.53,25.95 2.62,7.59 10.92,15.85 20.5,15.85z"/>
   <path class="fil0" d="M571.65 46.83c0,-11.29 8.3,-18.18 14.71,-18.18l12.98 0 0 33.75c-10.23,0 -19.61,1.11 -25.41,-9.21 -1.07,-1.91 -2.28,-3.93 -2.28,-6.36zm27.69 -33.75l0 7.78c-10.49,0 -19.83,-1.23 -28.27,7.21 -15.53,15.53 -3.08,41.26 15.29,41.26l19.9 0 0 -60.58c-3.45,0.08 -6.92,1 -6.92,4.33z"/>
   <path class="fil0" d="M790.59 45.1c0,-8.53 8.33,-16.45 14.71,-16.45l12.98 0 0 33.75c-10.22,0 -27.69,-0.04 -27.69,-17.3zm14.71 24.23l20.77 0 0 -45.87c0,-4.33 -7.37,-2.6 -19.04,-2.6 -13.16,0 -23.3,11.6 -23.99,23.54 -0.7,12.26 10.5,24.93 22.26,24.93z"/>
   <path class="fil0" d="M230.69 45.1c0,-7.88 7.33,-16.45 16.44,-16.45l11.25 0 0 33.75c-9.01,0 -15,0.83 -21.41,-4.55 -3.2,-2.7 -6.28,-7.29 -6.28,-12.75zm-6.93 -2.6l0 5.19c0,10.45 11.27,21.64 21.64,21.64l20.77 0 0 -45.87c0,-4.39 -7.95,-2.6 -19.91,-2.6 -10.57,0 -22.5,11.28 -22.5,21.64z"/>
   <path class="fil0" d="M652.13 45.96c0,-10.68 8.87,-17.31 14.71,-17.31l12.98 0 0 33.75c-10.47,0 -19.37,1.03 -25.61,-9 -1.31,-2.09 -2.08,-4.39 -2.08,-7.44zm-7.79 -0.86c0,12.02 10.55,24.23 22.5,24.23l19.9 0 0 -48.47 -18.17 0c-12.95,0 -24.23,11.47 -24.23,24.24z"/>
   <path class="fil0" d="M724.82 13.08l0 43.27c0,14.44 11.39,12.98 18.17,12.98l0 -6.93c-13.61,0 -10.38,-4.42 -10.38,-34.61 14.12,0 12.98,1.16 12.98,-5.19 0,-3.85 -4.04,-2.6 -12.98,-2.6l0 -11.25 -1.94 0c-2.49,0.08 -5.85,0.68 -5.85,4.33z"/>
   <path class="fil0" d="M359.63 14.81l0 41.54c0,14.44 11.39,12.98 18.17,12.98l0 -6.93c-13.62,0 -10.38,-4.42 -10.38,-34.61 14.11,0 12.98,1.16 12.98,-5.19 0,-3.85 -4.04,-2.6 -12.98,-2.6l0 -11.25 -2.71 0c-2.56,0.14 -5.08,1.08 -5.08,6.06z"/>
   <path class="fil0" d="M304.24 12.21l0 46.73c0,11.67 9.62,10.39 17.31,10.39l0 -7.79c-6.28,0 -10.38,1.39 -10.38,-7.79l0 -45 -3.19 0c-1.98,0.14 -3.74,0.81 -3.74,3.46z"/>
   <path class="fil0" d="M504.15 32.98l0 36.35 7.79 0 0 -37.22c0,-5.45 9.4,-4.32 13.84,-4.32l0 -6.93c-9.84,0 -21.63,-2.01 -21.63,12.12z"/>
  </g>
 </g>
</svg>
