<?xml version="1.0" encoding="UTF-8"?>
<!DOCTYPE svg PUBLIC "-//W3C//DTD SVG 1.1//EN" "http://www.w3.org/Graphics/SVG/1.1/DTD/svg11.dtd">
<!-- Creator: CorelDRAW 2020 (64 Bit) -->
<svg xmlns="http://www.w3.org/2000/svg" xml:space="preserve" width="354px" height="472px" version="1.1" style="shape-rendering:geometricPrecision; text-rendering:geometricPrecision; image-rendering:optimizeQuality; fill-rule:evenodd; clip-rule:evenodd"
viewBox="0 0 354 472"
 xmlns:xlink="http://www.w3.org/1999/xlink"
 xmlns:xodm="http://www.corel.com/coreldraw/odm/2003">
 <defs>
  <style type="text/css">
   <![CDATA[
    .fil0 {fill:#FEFEFE}
   ]]>
  </style>
 </defs>
 <g id="Camada_x0020_1">
  <metadata id="CorelCorpID_0Corel-Layer"/>
  <g id="_2567698910528">
   <path class="fil0" d="M-349.13 286.54l0 178.27 49.32 0 0 -185.19c0,-28.65 11.49,-57.05 30.94,-76.38 40.16,-39.93 101.61,-43.18 146.74,-5.24 3,2.52 4.62,3.61 7.31,6.53 1.6,1.74 1.62,2.13 3.07,3.86 19,22.59 26.56,45.1 26.56,77.28l0 179.14 49.33 0 0 -191.25c0,-32.77 20,-65.11 46.38,-83.43 3.09,-2.15 5,-3.1 8.1,-4.89 3.17,-1.82 4.66,-2.81 8.57,-4.41 58.55,-23.91 116.28,1.03 140.62,51.75 5.21,10.86 10.09,27.06 10.09,42.71l0 189.52 49.32 0 0 -187.79c0,-32.97 -10.65,-61.18 -28.2,-87.76 -5.39,-8.14 -11.16,-14.35 -17.88,-21.06 -61.06,-61.07 -159.6,-60.69 -218.51,-1.74 -5.99,6 -20.89,21.48 -22.72,28.35 -2.5,-1.68 -3.53,-4.13 -5.43,-6.69 -8.48,-11.39 -20.19,-24.03 -31.27,-32.77 -5.15,-4.06 -9.9,-7.02 -15.39,-10.57 -8.89,-5.76 -24.08,-12.65 -35.31,-15.75 -37.63,-10.37 -75.54,-9.2 -110.21,7.49 -59.52,28.66 -91.43,82.51 -91.43,150.02z"/>
   <path class="fil0" d="M-670.2 416.35l-82.21 0 0 -243.18 83.94 0c39.71,0 80.92,29.62 100.36,63.2 9.23,15.94 17.22,39.83 16.19,58.63 -1.85,33.78 -13.79,60.57 -36.28,83.06 -5.48,5.47 -9.24,9.25 -15.48,13.94 -17.15,12.92 -42.71,24.35 -66.52,24.35zm-129.81 -355.68l0 -11.15c0.33,-12.64 3.01,-23.26 20.49,-30.66 7.53,-3.19 16.68,-3.19 27.11,-3.19l0 108.17c34.12,0 78.44,-2.31 107.94,2.84 31.65,5.52 55.09,18.09 76.4,34.36 44.15,33.69 72.08,97.89 62.69,156.19 -9.3,57.76 -41.93,103.65 -92.57,128.97 -32.71,16.36 -56,17.75 -93.02,17.75 -37.03,0 -71.67,0.86 -109.04,0.86l0 -404.14z"/>
   <path class="fil0" d="M448.77 169.71c16.71,0 32.67,3.06 45.25,8.4 10.2,4.33 24.51,12.11 32.42,19.51 8.62,8.06 11.37,10.02 18.88,20.06 9.54,12.72 17.25,27.04 21.14,43.76l-232.79 0c0.94,-11.27 13.08,-33.27 20.64,-43.39 9.24,-12.37 20.72,-23.05 33.92,-30.99 5.65,-3.4 10.77,-6.14 17.26,-8.71 11.99,-4.75 26.58,-8.64 43.28,-8.64zm-166.16 118.56c0,34.18 3.94,50.37 16.19,79 2.12,4.95 4.7,9.15 7.22,13.55 5.35,9.36 10.43,16.08 17.13,24.41 4.57,5.67 12.1,12.18 15.93,16.09 6.99,7.14 21.31,17.12 30.07,21.86l14.42 7.21c18.38,8.62 42.89,14.42 69.53,14.42l117.69 0c1.99,0 2.6,-0.6 2.6,-2.59l0 -43.27c0,-4.28 -10.56,-2.6 -19.04,-2.6l-109.92 0.01c-31.56,0.18 -69.04,-19.48 -87.78,-44.63 -10.45,-14.02 -17.32,-26.12 -22.43,-43.33 -0.93,-3.12 -1.62,-6.11 -2.23,-9.03 -0.58,-2.79 -0.77,-7.36 -1.78,-9.46l285.58 0c2.42,-5.05 1.73,-13.6 1.73,-19.91 0,-33.5 -12.15,-68.01 -28.89,-93.13 -5.7,-8.54 -8.38,-10.98 -13.64,-17.51 -1.99,-2.48 -2.49,-3.22 -4.84,-5.54 -14.55,-14.38 -27.92,-25.3 -46.67,-34.69 -55.04,-27.58 -122.8,-21.58 -171.52,15.12 -8.27,6.23 -14.25,11.87 -21.54,19.14 -23.62,23.55 -47.81,67.98 -47.81,114.88z"/>
   <path class="fil0" d="M671.18 213.85l0 248.37c0,1.99 0.6,2.59 2.59,2.59l45 0 0 -237.12c0,-28.06 4.6,-47.75 26.05,-54.44 9.77,-3.05 53.34,-2.04 69.18,-1.78 3.85,0.06 7.76,1.02 7.76,-2.62l0 -45.87c-29.68,0 -74.46,-2.71 -99.85,5.72 -5.84,1.94 -10.71,4.13 -15.43,7.08 -7.98,4.99 -11.94,8.89 -17.63,16.12 -5.13,6.51 -8.83,14.28 -11.52,22.23 -3.65,10.84 -6.15,25.39 -6.15,39.72z"/>
   <path class="fil0" d="M-454.71 157.59l0 307.22 49.32 0 0 -342.7c-13.46,0 -28.32,-0.45 -38.32,9.28 -7.62,7.42 -11,13.81 -11,26.2z"/>
   <path class="fil0" d="M920.41 322.89c-17.08,-9.04 -25.95,-15.58 -50.19,-15.58 -22.27,0 -45.37,13.95 -54.82,32.58 -1.67,3.28 -2.57,5.91 -4.03,8.96 2.44,-0.65 7.75,-5.27 11.41,-7.63 25.12,-16.18 65.53,-19.99 92.08,-4.13 2.64,1.58 7.47,5.06 9.88,5.7 0.83,-10.01 14.17,-28.45 23.48,-35.36 28.12,-20.86 64.61,-23.84 90.55,0.08 7.71,7.11 19.01,24.69 20.11,37.88 9.03,-2.11 21.77,-13.17 52.93,-7.93 28.18,4.73 36.47,20.53 40.53,23.5 -0.18,-8.24 -7.61,-17.46 -12.23,-23.24 -17.88,-22.38 -52.55,-25.58 -77.77,-12.24 -0.17,-7.54 -4.94,-16.98 -8.06,-22.23 -3.79,-6.39 -8.77,-12.37 -14.3,-16.85 -34.04,-27.51 -82.75,-19.16 -108.95,15.95 -2.17,2.92 -4.23,6.25 -6.02,9.56 -1.99,3.72 -2.88,7.41 -4.6,10.98z"/>
   <path class="fil0" d="M879.74 133.36l-0.03 48.5c0.01,5.97 0.91,10.26 0.9,17.27 -0.06,20.96 7.73,36 24.58,46.38 36.65,22.57 81,-5.05 81,-44.65l0 -80.48 -15.58 0 0 83.08c0,4.95 -1.91,10.04 -3.82,13.49 -0.94,1.71 -2.23,3.85 -3.36,5.3 -24.16,30.92 -68.11,12.54 -68.11,-23.98l0 -77.89c-7.89,0 -15.58,-0.42 -15.58,12.98z"/>
   <path class="fil0" d="M1047.63 179.23l-33.75 0 0 -43.27 36.34 0c9.31,0 19.04,9.74 19.04,19.04 0,7.59 0.3,11.99 -7.1,18.85 -3.35,3.11 -8.34,5.38 -14.53,5.38zm-49.33 -50.19l0 124.61c10.26,0 15.58,1.47 15.58,-2.59l0 -56.25 32.02 0c21.69,0 38.08,-15.76 38.08,-39.81 0,-17.51 -17.11,-34.62 -34.62,-34.62l-42.41 0c-4.35,0 -8.65,4.3 -8.65,8.66z"/>
   <path class="fil0" d="M440.98 27.78c10.81,0 13.58,5.08 17.31,12.12l-32.02 0c1.37,-5.9 7.66,-12.12 14.71,-12.12zm-0.87 41.54l19.91 0 0 -6.92c-16.02,0 -30.57,2.67 -34.62,-14.71l40.68 0c0,-11.44 -4.19,-21.02 -14.41,-25.4 -9.96,-4.28 -20.52,-0.77 -26.52,5.24 -6.09,6.08 -8.97,16 -5.53,25.94 2.62,7.6 10.92,15.85 20.49,15.85z"/>
   <path class="fil0" d="M571.66 46.82c0,-11.28 8.3,-18.17 14.71,-18.17l12.98 0 0 33.75c-10.23,0 -19.61,1.11 -25.41,-9.21 -1.07,-1.91 -2.28,-3.94 -2.28,-6.37zm27.69 -33.75l0 7.79c-10.49,0 -19.83,-1.24 -28.27,7.21 -15.53,15.53 -3.08,41.25 15.29,41.25l19.9 0 0 -60.58c-3.45,0.08 -6.92,1.01 -6.92,4.33z"/>
   <path class="fil0" d="M790.6 45.09c0,-8.52 8.34,-16.44 14.71,-16.44l12.99 0 0 33.75c-10.23,0 -27.7,-0.04 -27.7,-17.31zm14.71 24.23l20.77 0 0 -45.86c0,-4.34 -7.37,-2.6 -19.03,-2.6 -13.17,0 -23.3,11.6 -23.99,23.53 -0.71,12.27 10.5,24.93 22.25,24.93z"/>
   <path class="fil0" d="M230.69 45.09c0,-7.87 7.33,-16.44 16.44,-16.44l11.25 0 0 33.75c-9.01,0 -15,0.83 -21.4,-4.56 -3.21,-2.7 -6.29,-7.28 -6.29,-12.75zm-6.93 -2.59l0 5.19c0,10.44 11.28,21.63 21.64,21.63l20.77 0 0 -45.86c0,-4.4 -7.95,-2.6 -19.91,-2.6 -10.57,0 -22.5,11.28 -22.5,21.64z"/>
   <path class="fil0" d="M652.14 45.96c0,-10.69 8.87,-17.31 14.71,-17.31l12.98 0 0 33.75c-10.47,0 -19.37,1.02 -25.61,-9 -1.31,-2.09 -2.08,-4.4 -2.08,-7.44zm-7.79 -0.87c0,12.02 10.55,24.23 22.5,24.23l19.9 0 0 -48.46 -18.17 0c-12.95,0 -24.23,11.46 -24.23,24.23z"/>
   <path class="fil0" d="M724.83 13.07l0 43.27c0,14.45 11.4,12.98 18.18,12.98l0 -6.92c-13.62,0 -10.39,-4.43 -10.39,-34.62 14.12,0 12.98,1.16 12.98,-5.19 0,-3.84 -4.04,-2.59 -12.98,-2.59l0 -11.26 -1.94 0c-2.49,0.09 -5.85,0.69 -5.85,4.33z"/>
   <path class="fil0" d="M359.63 14.8l0 41.54c0,14.45 11.4,12.98 18.18,12.98l0 -6.92c-13.62,0 -10.39,-4.43 -10.39,-34.62 14.12,0 12.98,1.16 12.98,-5.19 0,-3.84 -4.04,-2.59 -12.98,-2.59l0 -11.26 -2.71 0c-2.56,0.15 -5.08,1.09 -5.08,6.06z"/>
   <path class="fil0" d="M304.25 12.21l0 46.73c0,11.66 9.61,10.38 17.3,10.38l0 -7.79c-6.28,0 -10.38,1.39 -10.38,-7.78l0 -45.01 -3.19 0c-1.98,0.15 -3.73,0.82 -3.73,3.47z"/>
   <path class="fil0" d="M504.15 32.98l0 36.34 7.79 0 0 -37.21c0,-5.45 9.41,-4.33 13.85,-4.33l0 -6.92c-9.84,0 -21.64,-2.01 -21.64,12.12z"/>
  </g>
 </g>
</svg>
