<?xml version="1.0" encoding="UTF-8"?>
<!DOCTYPE svg PUBLIC "-//W3C//DTD SVG 1.1//EN" "http://www.w3.org/Graphics/SVG/1.1/DTD/svg11.dtd">
<!-- Creator: CorelDRAW 2020 (64 Bit) -->
<svg xmlns="http://www.w3.org/2000/svg" xml:space="preserve" width="354px" height="472px" version="1.1" style="shape-rendering:geometricPrecision; text-rendering:geometricPrecision; image-rendering:optimizeQuality; fill-rule:evenodd; clip-rule:evenodd"
viewBox="0 0 354 472"
 xmlns:xlink="http://www.w3.org/1999/xlink"
 xmlns:xodm="http://www.corel.com/coreldraw/odm/2003">
 <defs>
  <style type="text/css">
   <![CDATA[
    .fil0 {fill:#FDFEFE}
   ]]>
  </style>
 </defs>
 <g id="Camada_x0020_1">
  <metadata id="CorelCorpID_0Corel-Layer"/>
  <path class="fil0" d="M178.87 244.68c1.36,2.24 0.7,-2.76 1.27,3.78 0.14,1.68 -0.25,1.94 -0.48,3.32 -2.02,0.29 -2.15,0.62 -4.42,0.31 -2.46,-0.33 -1.38,-0.43 -2.64,-1.25l0.02 -6.07 6.25 -0.09zm1.21 -14.3c-3.61,-3.38 -2.99,-2.67 -6.86,-0.69 -1.34,0.68 -4.94,4.21 -6.42,-0.75 -3.27,-11.05 28.12,-8.48 19.25,6.18l-5.76 5.26c-3.53,2.95 -1.35,2.35 -7.36,1.79 0.03,-9.42 5.7,-3.92 7.15,-11.79zm-8.29 -16.05c-31.61,7.36 -19.96,51.69 10.28,44.74 10.62,-2.44 19.87,-14 16.55,-28.09 -2.41,-10.21 -13.8,-19.69 -26.83,-16.65z"/>
 </g>
</svg>
